<svg width="174" height="50" viewBox="0 0 174 50" fill="none" xmlns="http://www.w3.org/2000/svg">
<path d="M40 0H10C4.47715 0 0 4.47715 0 10V40C0 45.5228 4.47715 50 10 50H40C45.5228 50 50 45.5228 50 40V10C50 4.47715 45.5228 0 40 0Z" fill="#3B82F6"/>
<path d="M26.0039 9.5625H31.8633V29.25C31.8633 31.0599 31.4596 32.6615 30.6523 34.0547C29.8581 35.4349 28.7318 36.5026 27.2734 37.2578C25.8151 38.013 24.168 38.3906 22.332 38.3906C19.3242 38.3906 16.9805 37.6289 15.3008 36.1055C13.6211 34.569 12.7812 32.401 12.7812 29.6016H18.6797C18.6797 30.9948 18.9727 32.0234 19.5586 32.6875C20.1445 33.3516 21.069 33.6836 22.332 33.6836C23.4518 33.6836 24.3438 33.2995 25.0078 32.5312C25.6719 31.763 26.0039 30.6693 26.0039 29.25V9.5625Z" fill="white"/>
<path d="M55.48 28.52H58.57C58.93 28.06 59.16 27.53 59.26 26.93C59.36 26.31 59.41 25.07 59.41 23.21V11H63.52V21.8C63.52 23.14 63.49 24.18 63.43 24.92C63.39 25.66 63.27 26.5 63.07 27.44C62.69 29.22 61.74 30.74 60.22 32H55.48V28.52ZM73.0052 19.82H70.7552C70.4552 20.18 70.2052 20.68 70.0052 21.32C69.8252 21.96 69.7352 22.58 69.7352 23.18H74.0252C74.0652 22.58 73.9852 21.96 73.7852 21.32C73.5852 20.66 73.3252 20.16 73.0052 19.82ZM77.0852 28.85V32H69.4652C68.0652 31.06 67.0752 29.9 66.4952 28.52C65.9352 27.12 65.6552 25.71 65.6552 24.29C65.6552 21.01 66.8952 18.47 69.3752 16.67H74.2352C75.5752 17.65 76.4852 18.69 76.9652 19.79C77.4452 20.89 77.6852 22 77.6852 23.12C77.6852 24.24 77.5952 25.2 77.4152 26H69.9452C70.0052 26.46 70.1752 26.99 70.4552 27.59C70.7552 28.17 71.0752 28.59 71.4152 28.85H77.0852ZM79.7282 32V16.67H82.5782L83.3282 18.29C84.1282 17.21 85.1382 16.67 86.3582 16.67H87.5282V20.69H83.7182V32H79.7282ZM89.249 32V16.67H93.209V32H89.249ZM89.249 11H93.209V15.05H89.249V11ZM109.677 32L109.047 28.67H104.307L103.677 32H99.5969L103.647 11H109.857L113.697 32H109.677ZM106.617 14.9L105.447 21.89L104.787 25.46H108.537L107.847 21.89L106.677 14.9H106.617ZM115.294 16.67H118.504L118.954 17.75C119.394 17.35 119.804 17.07 120.184 16.91C120.584 16.75 121.174 16.67 121.954 16.67H124.654C125.494 17.49 126.154 18.55 126.634 19.85C127.114 21.15 127.354 22.58 127.354 24.14C127.354 27.48 126.354 30.1 124.354 32H121.804C120.744 32 119.904 31.72 119.284 31.16V36.5H115.294V16.67ZM119.284 28.85H122.164C122.904 27.59 123.274 26.06 123.274 24.26C123.274 22.46 122.894 20.98 122.134 19.82H119.284V28.85ZM129.503 16.67H132.713L133.163 17.75C133.603 17.35 134.013 17.07 134.393 16.91C134.793 16.75 135.383 16.67 136.163 16.67H138.863C139.703 17.49 140.363 18.55 140.843 19.85C141.323 21.15 141.563 22.58 141.563 24.14C141.563 27.48 140.563 30.1 138.563 32H136.013C134.953 32 134.113 31.72 133.493 31.16V36.5H129.503V16.67ZM133.493 28.85H136.373C137.113 27.59 137.483 26.06 137.483 24.26C137.483 22.46 137.103 20.98 136.343 19.82H133.493V28.85ZM144.743 16.67H151.373V19.82H146.693L149.543 24.05C150.823 25.87 151.533 27.12 151.673 27.8C151.753 28.12 151.793 28.45 151.793 28.79C151.793 30.21 151.263 31.28 150.203 32H142.553V28.85H148.043L144.833 24.14C144.693 23.92 144.473 23.61 144.173 23.21C143.893 22.81 143.673 22.49 143.513 22.25C143.353 21.99 143.243 21.8 143.183 21.68C143.123 21.56 143.043 21.41 142.943 21.23C142.843 21.03 142.773 20.86 142.733 20.72C142.653 20.34 142.613 20.03 142.613 19.79C142.613 18.33 143.323 17.29 144.743 16.67Z" fill="#3B82F6"/>
</svg>
